<?xml version="1.0" encoding="UTF-8"?>
<svg width="1244px" height="1006px" viewBox="0 0 1244 1006" version="1.1" xmlns="http://www.w3.org/2000/svg" xmlns:xlink="http://www.w3.org/1999/xlink">
    <!-- Generator: Sketch 43.2 (39069) - http://www.bohemiancoding.com/sketch -->
    <title>dds-bg</title>
    <desc>Created with Sketch.</desc>
    <defs></defs>
    <g id="Page-1" stroke="none" stroke-width="1" fill="none" fill-rule="evenodd" opacity="0.5">
        <g id="dds-bg" transform="translate(-32.000000, -34.000000)">
            <g id="Group-9-Copy-2" opacity="0.400000006" transform="translate(747.465822, 356.195775) rotate(-86.000000) translate(-747.465822, -356.195775) translate(408.965822, 90.695775)">
                <path d="M463.718047,162.761212 L521.10706,195.894774 L521.10706,262.161898 L463.718047,295.29546 L406.329034,262.161898 L406.329034,195.894774 L463.718047,162.761212 Z" id="Polygon" stroke="#C7D1D5" stroke-width="2"></path>
                <path d="M407.104301,62.9151508 L464.493314,96.0487129 L464.493314,162.315837 L407.104301,195.449399 L349.715288,162.315837 L349.715288,96.0487129 L407.104301,62.9151508 Z" id="Polygon-Copy-3" stroke="#C7D1D5" stroke-width="2"></path>
                <path d="M614.001809,396.421582 L671.390822,429.555144 L671.390822,495.822268 L614.001809,528.95583 L556.612796,495.822268 L556.612796,429.555144 L614.001809,396.421582 Z" id="Polygon-Copy-7" stroke="#C7D1D5" stroke-width="2"></path>
                <path d="M119.918208,161.731871 L177.307221,194.865433 L177.307221,261.132558 L119.918208,294.26612 L62.5291944,261.132558 L62.5291944,194.865433 L119.918208,161.731871 Z" id="Polygon-Copy-4" stroke="#C7D1D5" stroke-width="2"></path>
                <path d="M349.91418,334.661132 L385.908745,355.442604 L385.908745,397.005548 L349.91418,417.78702 L313.919614,397.005548 L313.919614,355.442604 L349.91418,334.661132 Z" id="Polygon-Copy" stroke="#C7D1D5" stroke-width="2"></path>
                <path d="M234.330095,334.661132 L255.615978,346.950542 L255.615978,371.529362 L234.330095,383.818772 L213.044212,371.529362 L213.044212,346.950542 L234.330095,334.661132 Z" id="Polygon-Copy-6" stroke="#C7D1D5" stroke-width="2"></path>
                <path d="M443.286285,404.656309 L464.572168,416.945719 L464.572168,441.524539 L443.286285,453.813949 L422.000402,441.524539 L422.000402,416.945719 L443.286285,404.656309 Z" id="Polygon-Copy-8" stroke="#C7D1D5" stroke-width="2"></path>
                <path d="M613.425434,273.930022 L649.42,294.711494 L649.42,336.274439 L613.425434,357.055911 L577.430869,336.274439 L577.430869,294.711494 L613.425434,273.930022 Z" id="Polygon-Copy-2" stroke="#C7D1D5" stroke-width="2"></path>
                <path d="M556.811688,1.15470054 L592.806254,21.9361726 L592.806254,63.4991168 L556.811688,84.2805889 L520.817123,63.4991168 L520.817123,21.9361726 L556.811688,1.15470054 Z" id="Polygon-Copy-5" stroke="#C7D1D5" stroke-width="2"></path>
                <g id="Group-6" transform="translate(520.846463, 158.518489)" fill="#C7D1D5">
                    <circle id="Oval-3" cx="56.613746" cy="4.11736335" r="4.11736335"></circle>
                    <rect id="Rectangle-25" transform="translate(29.040600, 20.448911) rotate(60.000000) translate(-29.040600, -20.448911) " x="28.0112596" y="-12.4899956" width="2.05868167" height="65.8778136"></rect>
                </g>
                <g id="Group-6-Copy" transform="translate(257.335209, 393.208200)" fill="#C7D1D5">
                    <circle id="Oval-3" cx="56.613746" cy="4.11736335" r="4.11736335"></circle>
                    <rect id="Rectangle-25" transform="translate(29.040600, 20.448911) rotate(60.000000) translate(-29.040600, -20.448911) " x="28.0112596" y="-12.4899956" width="2.05868167" height="65.8778136"></rect>
                </g>
                <circle id="Oval-3" fill="#C7D1D5" transform="translate(386.002814, 396.296222) scale(-1, 1) translate(-386.002814, -396.296222) " cx="386.002814" cy="396.296222" r="4.11736335"></circle>
                <rect id="Rectangle-25" fill="#C7D1D5" transform="translate(405.375531, 407.481066) scale(-1, 1) rotate(60.000000) translate(-405.375531, -407.481066) " x="404.346191" y="386.894249" width="2.05868167" height="41.1736335"></rect>
                <g id="Group-6-Copy-2" transform="translate(6.176045, 257.335209)" fill="#C7D1D5">
                    <circle id="Oval-3" cx="56.613746" cy="4.11736335" r="4.11736335"></circle>
                    <rect id="Rectangle-25" transform="translate(29.040600, 20.448911) rotate(60.000000) translate(-29.040600, -20.448911) " x="28.0112596" y="-12.4899956" width="2.05868167" height="65.8778136"></rect>
                </g>
                <rect id="Rectangle-25" fill="#C7D1D5" transform="translate(492.243977, 80.150680) rotate(60.000000) translate(-492.243977, -80.150680) " x="491.214636" y="47.211773" width="2.05868167" height="65.8778136"></rect>
                <rect id="Rectangle-25-Copy-2" fill="#C7D1D5" transform="translate(549.887064, 278.813461) scale(-1, 1) rotate(60.000000) translate(-549.887064, -278.813461) " x="548.857723" y="245.874555" width="2.05868167" height="65.8778136"></rect>
                <rect id="Rectangle-25-Copy-3" fill="#C7D1D5" transform="translate(320.344057, 277.784120) scale(-1, 1) rotate(60.000000) translate(-320.344057, -277.784120) " x="319.314716" y="244.845214" width="2.05868167" height="65.8778136"></rect>
                <rect id="Rectangle-25-Copy-4" fill="#C7D1D5" transform="translate(204.838827, 277.784120) scale(-1, 1) rotate(60.000000) translate(-204.838827, -277.784120) " x="203.809486" y="244.845214" width="2.05868167" height="65.8778136"></rect>
                <rect id="Rectangle-25-Copy" fill="#C7D1D5" transform="translate(377.987144, 278.813461) rotate(60.000000) translate(-377.987144, -278.813461) " x="376.957803" y="245.874555" width="2.05868167" height="65.8778136"></rect>
                <rect id="Rectangle-25-Copy-6" fill="#C7D1D5" transform="translate(262.481913, 278.813461) rotate(60.000000) translate(-262.481913, -278.813461) " x="261.452573" y="245.874555" width="2.05868167" height="65.8778136"></rect>
                <rect id="Rectangle-25" fill="#C7D1D5" transform="translate(613.487139, 377.768087) scale(-1, 1) translate(-613.487139, -377.768087) " x="612.457798" y="358.210611" width="2.05868167" height="39.1149518"></rect>
                <circle id="Oval-3-Copy" fill="#C7D1D5" cx="613.487139" cy="356.15193" r="4.11736335"></circle>
                <circle id="Oval-3-Copy-5" fill="#C7D1D5" cx="613.487139" cy="397.325563" r="4.11736335"></circle>
                <circle id="Oval-3-Copy-4" fill="#00AAF9" cx="520.846463" cy="24.7041801" r="6.17604502"></circle>
                <circle id="Oval-3-Copy-6" fill="#00AAF9" cx="256.305868" cy="429.235129" r="6.17604502"></circle>
                <circle id="Oval-3-Copy-7" fill="#00AAF9" cx="6.17604502" cy="295.42082" r="6.17604502"></circle>
                <circle id="Oval-3-Copy-12" fill="#C7D1D5" cx="464.232717" cy="95.7286978" r="6.17604502"></circle>
                <circle id="Oval-3-Copy-8" fill="#00AAF9" cx="519.817123" cy="263.511254" r="6.17604502"></circle>
                <circle id="Oval-3-Copy-9" fill="#00AAF9" cx="349.975885" cy="161.606511" r="6.17604502"></circle>
                <circle id="Oval-3-Copy-10" fill="#00AAF9" cx="291.303457" cy="262.481913" r="6.17604502"></circle>
                <circle id="Oval-3-Copy-11" fill="#00AAF9" cx="670.100885" cy="496.142283" r="6.17604502"></circle>
                <g id="Group-8" transform="translate(229.543007, 290.274116)" fill="#C7D1D5">
                    <rect id="Rectangle-25-Copy-5" transform="translate(4.927647, 25.733521) scale(-1, 1) translate(-4.927647, -25.733521) " x="3.89830632" y="6.17604502" width="2.05868167" height="39.1149518"></rect>
                    <circle id="Oval-3-Copy-2" cx="4.92764715" cy="4.11736335" r="4.11736335"></circle>
                </g>
                <g id="Group-8-Copy" transform="translate(344.829180, 290.274116)" fill="#C7D1D5">
                    <rect id="Rectangle-25-Copy-5" transform="translate(4.927647, 25.733521) scale(-1, 1) translate(-4.927647, -25.733521) " x="3.89830632" y="6.17604502" width="2.05868167" height="39.1149518"></rect>
                    <circle id="Oval-3-Copy-2" cx="4.92764715" cy="4.11736335" r="4.11736335"></circle>
                </g>
            </g>
            <g id="Group-9-Copy-3" opacity="0.400000006" transform="translate(874.330008, 850.656526) rotate(-23.000000) translate(-874.330008, -850.656526) translate(535.830008, 585.156526)">
                <path d="M463.718047,162.761212 L521.10706,195.894774 L521.10706,262.161898 L463.718047,295.29546 L406.329034,262.161898 L406.329034,195.894774 L463.718047,162.761212 Z" id="Polygon" stroke="#C7D1D5" stroke-width="2"></path>
                <path d="M407.104301,62.9151508 L464.493314,96.0487129 L464.493314,162.315837 L407.104301,195.449399 L349.715288,162.315837 L349.715288,96.0487129 L407.104301,62.9151508 Z" id="Polygon-Copy-3" stroke="#C7D1D5" stroke-width="2"></path>
                <path d="M614.001809,396.421582 L671.390822,429.555144 L671.390822,495.822268 L614.001809,528.95583 L556.612796,495.822268 L556.612796,429.555144 L614.001809,396.421582 Z" id="Polygon-Copy-7" stroke="#C7D1D5" stroke-width="2"></path>
                <path d="M119.918208,161.731871 L177.307221,194.865433 L177.307221,261.132558 L119.918208,294.26612 L62.5291944,261.132558 L62.5291944,194.865433 L119.918208,161.731871 Z" id="Polygon-Copy-4" stroke="#C7D1D5" stroke-width="2"></path>
                <path d="M349.91418,334.661132 L385.908745,355.442604 L385.908745,397.005548 L349.91418,417.78702 L313.919614,397.005548 L313.919614,355.442604 L349.91418,334.661132 Z" id="Polygon-Copy" stroke="#C7D1D5" stroke-width="2"></path>
                <path d="M234.330095,334.661132 L255.615978,346.950542 L255.615978,371.529362 L234.330095,383.818772 L213.044212,371.529362 L213.044212,346.950542 L234.330095,334.661132 Z" id="Polygon-Copy-6" stroke="#C7D1D5" stroke-width="2"></path>
                <path d="M443.286285,404.656309 L464.572168,416.945719 L464.572168,441.524539 L443.286285,453.813949 L422.000402,441.524539 L422.000402,416.945719 L443.286285,404.656309 Z" id="Polygon-Copy-8" stroke="#C7D1D5" stroke-width="2"></path>
                <path d="M613.425434,273.930022 L649.42,294.711494 L649.42,336.274439 L613.425434,357.055911 L577.430869,336.274439 L577.430869,294.711494 L613.425434,273.930022 Z" id="Polygon-Copy-2" stroke="#C7D1D5" stroke-width="2"></path>
                <path d="M556.811688,1.15470054 L592.806254,21.9361726 L592.806254,63.4991168 L556.811688,84.2805889 L520.817123,63.4991168 L520.817123,21.9361726 L556.811688,1.15470054 Z" id="Polygon-Copy-5" stroke="#C7D1D5" stroke-width="2"></path>
                <g id="Group-6" transform="translate(520.846463, 158.518489)" fill="#C7D1D5">
                    <circle id="Oval-3" cx="56.613746" cy="4.11736335" r="4.11736335"></circle>
                    <rect id="Rectangle-25" transform="translate(29.040600, 20.448911) rotate(60.000000) translate(-29.040600, -20.448911) " x="28.0112596" y="-12.4899956" width="2.05868167" height="65.8778136"></rect>
                </g>
                <g id="Group-6-Copy" transform="translate(257.335209, 393.208200)" fill="#C7D1D5">
                    <circle id="Oval-3" cx="56.613746" cy="4.11736335" r="4.11736335"></circle>
                    <rect id="Rectangle-25" transform="translate(29.040600, 20.448911) rotate(60.000000) translate(-29.040600, -20.448911) " x="28.0112596" y="-12.4899956" width="2.05868167" height="65.8778136"></rect>
                </g>
                <circle id="Oval-3" fill="#C7D1D5" transform="translate(386.002814, 396.296222) scale(-1, 1) translate(-386.002814, -396.296222) " cx="386.002814" cy="396.296222" r="4.11736335"></circle>
                <rect id="Rectangle-25" fill="#C7D1D5" transform="translate(405.375531, 407.481066) scale(-1, 1) rotate(60.000000) translate(-405.375531, -407.481066) " x="404.346191" y="386.894249" width="2.05868167" height="41.1736335"></rect>
                <g id="Group-6-Copy-2" transform="translate(6.176045, 257.335209)" fill="#C7D1D5">
                    <circle id="Oval-3" cx="56.613746" cy="4.11736335" r="4.11736335"></circle>
                    <rect id="Rectangle-25" transform="translate(29.040600, 20.448911) rotate(60.000000) translate(-29.040600, -20.448911) " x="28.0112596" y="-12.4899956" width="2.05868167" height="65.8778136"></rect>
                </g>
                <rect id="Rectangle-25" fill="#C7D1D5" transform="translate(492.243977, 80.150680) rotate(60.000000) translate(-492.243977, -80.150680) " x="491.214636" y="47.211773" width="2.05868167" height="65.8778136"></rect>
                <rect id="Rectangle-25-Copy-2" fill="#C7D1D5" transform="translate(549.887064, 278.813461) scale(-1, 1) rotate(60.000000) translate(-549.887064, -278.813461) " x="548.857723" y="245.874555" width="2.05868167" height="65.8778136"></rect>
                <rect id="Rectangle-25-Copy-3" fill="#C7D1D5" transform="translate(320.344057, 277.784120) scale(-1, 1) rotate(60.000000) translate(-320.344057, -277.784120) " x="319.314716" y="244.845214" width="2.05868167" height="65.8778136"></rect>
                <rect id="Rectangle-25-Copy-4" fill="#C7D1D5" transform="translate(204.838827, 277.784120) scale(-1, 1) rotate(60.000000) translate(-204.838827, -277.784120) " x="203.809486" y="244.845214" width="2.05868167" height="65.8778136"></rect>
                <rect id="Rectangle-25-Copy" fill="#C7D1D5" transform="translate(377.987144, 278.813461) rotate(60.000000) translate(-377.987144, -278.813461) " x="376.957803" y="245.874555" width="2.05868167" height="65.8778136"></rect>
                <rect id="Rectangle-25-Copy-6" fill="#C7D1D5" transform="translate(262.481913, 278.813461) rotate(60.000000) translate(-262.481913, -278.813461) " x="261.452573" y="245.874555" width="2.05868167" height="65.8778136"></rect>
                <rect id="Rectangle-25" fill="#C7D1D5" transform="translate(613.487139, 377.768087) scale(-1, 1) translate(-613.487139, -377.768087) " x="612.457798" y="358.210611" width="2.05868167" height="39.1149518"></rect>
                <circle id="Oval-3-Copy" fill="#C7D1D5" cx="613.487139" cy="356.15193" r="4.11736335"></circle>
                <circle id="Oval-3-Copy-5" fill="#C7D1D5" cx="613.487139" cy="397.325563" r="4.11736335"></circle>
                <circle id="Oval-3-Copy-4" fill="#00AAF9" cx="520.846463" cy="24.7041801" r="6.17604502"></circle>
                <circle id="Oval-3-Copy-6" fill="#00AAF9" cx="256.305868" cy="429.235129" r="6.17604502"></circle>
                <circle id="Oval-3-Copy-7" fill="#00AAF9" cx="6.17604502" cy="295.42082" r="6.17604502"></circle>
                <circle id="Oval-3-Copy-12" fill="#C7D1D5" cx="464.232717" cy="95.7286978" r="6.17604502"></circle>
                <circle id="Oval-3-Copy-8" fill="#00AAF9" cx="519.817123" cy="263.511254" r="6.17604502"></circle>
                <circle id="Oval-3-Copy-9" fill="#00AAF9" cx="349.975885" cy="161.606511" r="6.17604502"></circle>
                <circle id="Oval-3-Copy-10" fill="#00AAF9" cx="291.303457" cy="262.481913" r="6.17604502"></circle>
                <circle id="Oval-3-Copy-11" fill="#00AAF9" cx="670.100885" cy="496.142283" r="6.17604502"></circle>
                <g id="Group-8" transform="translate(229.543007, 290.274116)" fill="#C7D1D5">
                    <rect id="Rectangle-25-Copy-5" transform="translate(4.927647, 25.733521) scale(-1, 1) translate(-4.927647, -25.733521) " x="3.89830632" y="6.17604502" width="2.05868167" height="39.1149518"></rect>
                    <circle id="Oval-3-Copy-2" cx="4.92764715" cy="4.11736335" r="4.11736335"></circle>
                </g>
                <g id="Group-8-Copy" transform="translate(344.829180, 290.274116)" fill="#C7D1D5">
                    <rect id="Rectangle-25-Copy-5" transform="translate(4.927647, 25.733521) scale(-1, 1) translate(-4.927647, -25.733521) " x="3.89830632" y="6.17604502" width="2.05868167" height="39.1149518"></rect>
                    <circle id="Oval-3-Copy-2" cx="4.92764715" cy="4.11736335" r="4.11736335"></circle>
                </g>
            </g>
            <g id="Group-9-Copy" opacity="0.400000006" transform="translate(323.000000, 603.000000) rotate(-7.000000) translate(-323.000000, -603.000000) translate(27.000000, 371.000000)">
                <path d="M405.8381,142.589954 L455.939165,171.515817 L455.939165,229.367544 L405.8381,258.293408 L355.737035,229.367544 L355.737035,171.515817 L405.8381,142.589954 Z" id="Polygon" stroke="#C7D1D5" stroke-width="2"></path>
                <path d="M356.290718,55.2063898 L406.391783,84.1322532 L406.391783,141.98398 L356.290718,170.909844 L306.189653,141.98398 L306.189653,84.1322532 L356.290718,55.2063898 Z" id="Polygon-Copy-3" stroke="#C7D1D5" stroke-width="2"></path>
                <path d="M537.363877,347.085512 L587.464942,376.011375 L587.464942,433.863102 L537.363877,462.788965 L487.262812,433.863102 L487.262812,376.011375 L537.363877,347.085512 Z" id="Polygon-Copy-7" stroke="#C7D1D5" stroke-width="2"></path>
                <path d="M104.950363,141.689093 L155.051428,170.614956 L155.051428,228.466683 L104.950363,257.392546 L54.8492981,228.466683 L54.8492981,170.614956 L104.950363,141.689093 Z" id="Polygon-Copy-4" stroke="#C7D1D5" stroke-width="2"></path>
                <path d="M306.238903,293.033822 L337.615914,311.149348 L337.615914,347.380399 L306.238903,365.495925 L274.861892,347.380399 L274.861892,311.149348 L306.238903,293.033822 Z" id="Polygon-Copy" stroke="#C7D1D5" stroke-width="2"></path>
                <path d="M205.08169,293.033822 L223.585913,303.717241 L223.585913,325.084077 L205.08169,335.767496 L186.577466,325.084077 L186.577466,303.717241 L205.08169,293.033822 Z" id="Polygon-Copy-6" stroke="#C7D1D5" stroke-width="2"></path>
                <path d="M387.956572,354.292404 L406.460795,364.975822 L406.460795,386.342659 L387.956572,397.026077 L369.452348,386.342659 L369.452348,364.975822 L387.956572,354.292404 Z" id="Polygon-Copy-8" stroke="#C7D1D5" stroke-width="2"></path>
                <path d="M536.859444,239.882995 L568.236454,257.99852 L568.236454,294.229571 L536.859444,312.345097 L505.482433,294.229571 L505.482433,257.99852 L536.859444,239.882995 Z" id="Polygon-Copy-2" stroke="#C7D1D5" stroke-width="2"></path>
                <path d="M487.312062,1.15470054 L518.689073,19.2702261 L518.689073,55.5012773 L487.312062,73.6168029 L455.935051,55.5012773 L455.935051,19.2702261 L487.312062,1.15470054 Z" id="Polygon-Copy-5" stroke="#C7D1D5" stroke-width="2"></path>
                <g id="Group-6" transform="translate(455.835913, 138.732669)" fill="#C7D1D5">
                    <circle id="Oval-3" cx="49.5473818" cy="3.60344595" r="3.60344595"></circle>
                    <rect id="Rectangle-25" transform="translate(25.415837, 17.896537) rotate(60.000000) translate(-25.415837, -17.896537) " x="24.5149751" y="-10.9310304" width="1.80172297" height="57.6551352"></rect>
                </g>
                <g id="Group-6-Copy" transform="translate(225.215372, 344.129088)" fill="#C7D1D5">
                    <circle id="Oval-3" cx="49.5473818" cy="3.60344595" r="3.60344595"></circle>
                    <rect id="Rectangle-25" transform="translate(25.415837, 17.896537) rotate(60.000000) translate(-25.415837, -17.896537) " x="24.5149751" y="-10.9310304" width="1.80172297" height="57.6551352"></rect>
                </g>
                <circle id="Oval-3" fill="#C7D1D5" transform="translate(337.823058, 346.831673) scale(-1, 1) translate(-337.823058, -346.831673) " cx="337.823058" cy="346.831673" r="3.60344595"></circle>
                <rect id="Rectangle-25" fill="#C7D1D5" transform="translate(354.777729, 356.620456) scale(-1, 1) rotate(60.000000) translate(-354.777729, -356.620456) " x="353.876867" y="338.603227" width="1.80172297" height="36.0344595"></rect>
                <g id="Group-6-Copy-2" transform="translate(5.405169, 225.215372)" fill="#C7D1D5">
                    <circle id="Oval-3" cx="49.5473818" cy="3.60344595" r="3.60344595"></circle>
                    <rect id="Rectangle-25" transform="translate(25.415837, 17.896537) rotate(60.000000) translate(-25.415837, -17.896537) " x="24.5149751" y="-10.9310304" width="1.80172297" height="57.6551352"></rect>
                </g>
                <rect id="Rectangle-25" fill="#C7D1D5" transform="translate(430.803506, 70.146503) rotate(60.000000) translate(-430.803506, -70.146503) " x="429.902644" y="41.3189359" width="1.80172297" height="57.6551352"></rect>
                <rect id="Rectangle-25-Copy-2" fill="#C7D1D5" transform="translate(481.251749, 244.012770) scale(-1, 1) rotate(60.000000) translate(-481.251749, -244.012770) " x="480.350888" y="215.185203" width="1.80172297" height="57.6551352"></rect>
                <rect id="Rectangle-25-Copy-3" fill="#C7D1D5" transform="translate(280.359638, 243.111909) scale(-1, 1) rotate(60.000000) translate(-280.359638, -243.111909) " x="279.458776" y="214.284341" width="1.80172297" height="57.6551352"></rect>
                <rect id="Rectangle-25-Copy-4" fill="#C7D1D5" transform="translate(179.271436, 243.111909) scale(-1, 1) rotate(60.000000) translate(-179.271436, -243.111909) " x="178.370574" y="214.284341" width="1.80172297" height="57.6551352"></rect>
                <rect id="Rectangle-25-Copy" fill="#C7D1D5" transform="translate(330.807881, 244.012770) rotate(60.000000) translate(-330.807881, -244.012770) " x="329.907019" y="215.185203" width="1.80172297" height="57.6551352"></rect>
                <rect id="Rectangle-25-Copy-6" fill="#C7D1D5" transform="translate(229.719679, 244.012770) rotate(60.000000) translate(-229.719679, -244.012770) " x="228.818818" y="215.185203" width="1.80172297" height="57.6551352"></rect>
                <rect id="Rectangle-25" fill="#C7D1D5" transform="translate(536.913446, 330.616166) scale(-1, 1) translate(-536.913446, -330.616166) " x="536.012585" y="313.499798" width="1.80172297" height="34.2327365"></rect>
                <circle id="Oval-3-Copy" fill="#C7D1D5" cx="536.913446" cy="311.698075" r="3.60344595"></circle>
                <circle id="Oval-3-Copy-5" fill="#C7D1D5" cx="536.913446" cy="347.732534" r="3.60344595"></circle>
                <circle id="Oval-3-Copy-4" fill="#00AAF9" cx="455.835913" cy="21.6206757" r="5.40516892"></circle>
                <circle id="Oval-3-Copy-6" fill="#00AAF9" cx="224.31451" cy="375.65924" r="5.40516892"></circle>
                <circle id="Oval-3-Copy-7" fill="#00AAF9" cx="5.40516892" cy="258.547247" r="5.40516892"></circle>
                <circle id="Oval-3-Copy-12" fill="#C7D1D5" cx="406.288531" cy="83.7801183" r="5.40516892"></circle>
                <circle id="Oval-3-Copy-8" fill="#00AAF9" cx="454.935051" cy="230.620541" r="5.40516892"></circle>
                <circle id="Oval-3-Copy-9" fill="#00AAF9" cx="306.292906" cy="141.435254" r="5.40516892"></circle>
                <circle id="Oval-3-Copy-10" fill="#00AAF9" cx="254.943801" cy="229.719679" r="5.40516892"></circle>
                <circle id="Oval-3-Copy-11" fill="#00AAF9" cx="586.460828" cy="434.215237" r="5.40516892"></circle>
                <g id="Group-8" transform="translate(200.892112, 254.042939)" fill="#C7D1D5">
                    <rect id="Rectangle-25-Copy-5" transform="translate(4.312592, 22.521537) scale(-1, 1) translate(-4.312592, -22.521537) " x="3.41173098" y="5.40516892" width="1.80172297" height="34.2327365"></rect>
                    <circle id="Oval-3-Copy-2" cx="4.31259247" cy="3.60344595" r="3.60344595"></circle>
                </g>
                <g id="Group-8-Copy" transform="translate(301.788598, 254.042939)" fill="#C7D1D5">
                    <rect id="Rectangle-25-Copy-5" transform="translate(4.312592, 22.521537) scale(-1, 1) translate(-4.312592, -22.521537) " x="3.41173098" y="5.40516892" width="1.80172297" height="34.2327365"></rect>
                    <circle id="Oval-3-Copy-2" cx="4.31259247" cy="3.60344595" r="3.60344595"></circle>
                </g>
            </g>
        </g>
    </g>
</svg>