<?xml version="1.0" encoding="UTF-8"?>
<svg width="112px" height="112px" viewBox="0 0 112 112" version="1.1" xmlns="http://www.w3.org/2000/svg" xmlns:xlink="http://www.w3.org/1999/xlink">
    <!-- Generator: Sketch 43.2 (39069) - http://www.bohemiancoding.com/sketch -->
    <title>dimensions-white</title>
    <desc>Created with Sketch.</desc>
    <defs></defs>
    <g id="Page-1" stroke="none" stroke-width="1" fill="none" fill-rule="evenodd">
        <g id="dimensions-white">
            <path d="M56.5,67.1354541 L95.93691,88.3456238 L56.5,110.848656 L17.06309,88.3456238 L56.5,67.1354541 Z" id="Rectangle-27" stroke="#FFFFFF" stroke-width="2"></path>
            <g id="Group-2" transform="translate(54.000000, 7.000000)" fill="#FFFFFF">
                <rect id="Rectangle-28-Copy-7" transform="translate(2.500000, 21.000000) scale(-1, 1) rotate(180.000000) translate(-2.500000, -21.000000) " x="2" y="19" width="1" height="4"></rect>
                <rect id="Rectangle-28-Copy-8" transform="translate(2.500000, 27.000000) scale(-1, 1) rotate(180.000000) translate(-2.500000, -27.000000) " x="2" y="25" width="1" height="4"></rect>
                <rect id="Rectangle-28-Copy-6" transform="translate(2.500000, 9.000000) scale(-1, 1) rotate(180.000000) translate(-2.500000, -9.000000) " x="2" y="7" width="1" height="4"></rect>
                <rect id="Rectangle-28-Copy-9" transform="translate(2.500000, 33.000000) scale(-1, 1) rotate(180.000000) translate(-2.500000, -33.000000) " x="2" y="31" width="1" height="4"></rect>
                <rect id="Rectangle-28-Copy-9" transform="translate(2.500000, 39.000000) scale(-1, 1) rotate(180.000000) translate(-2.500000, -39.000000) " x="2" y="37" width="1" height="4"></rect>
                <rect id="Rectangle-28-Copy-6" transform="translate(2.500000, 15.000000) scale(-1, 1) rotate(180.000000) translate(-2.500000, -15.000000) " x="2" y="13" width="1" height="4"></rect>
                <circle id="Oval-5" cx="2.5" cy="2.5" r="2.5"></circle>
            </g>
            <g id="Group-2" transform="translate(76.003521, 61.415064) scale(1, -1) rotate(60.000000) translate(-76.003521, -61.415064) translate(73.503521, 40.915064)" fill="#FFFFFF">
                <rect id="Rectangle-28-Copy-7" transform="translate(2.500000, 21.000000) scale(-1, 1) rotate(180.000000) translate(-2.500000, -21.000000) " x="2" y="19" width="1" height="4"></rect>
                <rect id="Rectangle-28-Copy-8" transform="translate(2.500000, 27.000000) scale(-1, 1) rotate(180.000000) translate(-2.500000, -27.000000) " x="2" y="25" width="1" height="4"></rect>
                <rect id="Rectangle-28-Copy-6" transform="translate(2.500000, 9.000000) scale(-1, 1) rotate(180.000000) translate(-2.500000, -9.000000) " x="2" y="7" width="1" height="4"></rect>
                <rect id="Rectangle-28-Copy-9" transform="translate(2.500000, 33.000000) scale(-1, 1) rotate(180.000000) translate(-2.500000, -33.000000) " x="2" y="31" width="1" height="4"></rect>
                <rect id="Rectangle-28-Copy-9" transform="translate(2.500000, 39.000000) scale(-1, 1) rotate(180.000000) translate(-2.500000, -39.000000) " x="2" y="37" width="1" height="4"></rect>
                <rect id="Rectangle-28-Copy-6" transform="translate(2.500000, 15.000000) scale(-1, 1) rotate(180.000000) translate(-2.500000, -15.000000) " x="2" y="13" width="1" height="4"></rect>
                <circle id="Oval-5" cx="2.5" cy="2.5" r="2.5"></circle>
            </g>
            <g id="Group-2" transform="translate(37.003521, 61.415064) scale(-1, -1) rotate(60.000000) translate(-37.003521, -61.415064) translate(34.503521, 40.915064)" fill="#FFFFFF">
                <rect id="Rectangle-28-Copy-7" transform="translate(2.500000, 21.000000) scale(-1, 1) rotate(180.000000) translate(-2.500000, -21.000000) " x="2" y="19" width="1" height="4"></rect>
                <rect id="Rectangle-28-Copy-8" transform="translate(2.500000, 27.000000) scale(-1, 1) rotate(180.000000) translate(-2.500000, -27.000000) " x="2" y="25" width="1" height="4"></rect>
                <rect id="Rectangle-28-Copy-6" transform="translate(2.500000, 9.000000) scale(-1, 1) rotate(180.000000) translate(-2.500000, -9.000000) " x="2" y="7" width="1" height="4"></rect>
                <rect id="Rectangle-28-Copy-9" transform="translate(2.500000, 33.000000) scale(-1, 1) rotate(180.000000) translate(-2.500000, -33.000000) " x="2" y="31" width="1" height="4"></rect>
                <rect id="Rectangle-28-Copy-9" transform="translate(2.500000, 39.000000) scale(-1, 1) rotate(180.000000) translate(-2.500000, -39.000000) " x="2" y="37" width="1" height="4"></rect>
                <rect id="Rectangle-28-Copy-6" transform="translate(2.500000, 15.000000) scale(-1, 1) rotate(180.000000) translate(-2.500000, -15.000000) " x="2" y="13" width="1" height="4"></rect>
                <circle id="Oval-5" cx="2.5" cy="2.5" r="2.5"></circle>
            </g>
        </g>
    </g>
</svg>