<?xml version="1.0" encoding="UTF-8"?>
<svg width="290px" height="94px" viewBox="0 0 290 94" version="1.1" xmlns="http://www.w3.org/2000/svg" xmlns:xlink="http://www.w3.org/1999/xlink" style="background: #F1F3F6;">
    <!-- Generator: Sketch 43.2 (39069) - http://www.bohemiancoding.com/sketch -->
    <title>proshare_logo-email</title>
    <desc>Created with Sketch.</desc>
    <defs></defs>
    <g id="Symbols" stroke="none" stroke-width="1" fill="none" fill-rule="evenodd">
        <g id="proshare_logo-email">
            <text id="PROSHARE" font-family="Sheldon" font-size="64" font-weight="normal" line-spacing="36" fill="#62686F">
                <tspan x="88" y="98">PROSHARE</tspan>
            </text>
            <g id="Group-2" transform="translate(30.000000, 22.000000)">
                <path d="M19.0208914,26.0927294 C19.7537245,26.0927294 20.4572442,26.151356 20.6917508,26.6789959 C20.8383175,26.9721291 20.8676308,27.5583956 20.8676308,28.2032887 C20.8676308,28.9947485 20.8090041,29.8741482 20.7796908,30.6069813 C20.7796908,31.4277544 20.7796908,32.1019608 20.8090041,32.6882273 C20.6331242,33.1279272 20.3399909,33.2158672 19.9589177,33.2744938 C19.8123511,33.3038071 19.6071578,33.3038071 19.4312779,33.3038071 C19.2260846,33.3038071 19.0502047,33.2744938 18.991578,33.2451805 C18.8743247,33.1865538 18.7863848,32.1605875 18.7570714,30.9587412 L18.8743247,28.5257353 L16.2947522,28.5257353 L16.2361256,31.662261 L16.2361256,32.9227339 C16.2361256,35.2971132 16.4706322,35.6195597 17.4965985,36.0592596 C17.9656117,36.2644529 18.8743247,36.3523928 19.8123511,36.3523928 C20.8090041,36.3523928 21.8056572,36.2351395 22.2746703,36.0299463 C23.3006367,35.5316198 23.6817099,35.5023064 23.7989632,33.0399872 L23.7989632,32.8054806 C23.7989632,32.3364674 23.8575898,31.8088276 23.8575898,31.2518744 L23.8575898,28.2032887 C23.8575898,26.7376225 23.8282765,26.3565493 23.4765166,26.0047894 L22.8023102,25.3012696 L23.5937699,24.8029431 C24.3559164,24.3046166 24.2972897,24.5391232 24.4731696,19.2627249 C24.502483,18.2660718 24.5317963,17.5039254 24.5317963,16.9469723 C24.5317963,16.2727658 24.4731696,15.7158126 24.326603,15.2467994 C24.1214098,14.6019063 23.7696499,14.1035798 23.2126967,13.8397599 C22.7729968,13.6345666 21.2193907,13.488 19.8123511,13.488 C18.7570714,13.488 17.7604184,13.57594 17.4379719,13.7225066 C16.7344521,14.0449532 16.5292588,14.396713 16.5292588,16.4486457 C16.5292588,16.8590323 16.5292588,17.3866721 16.5585721,17.9729386 L16.6171988,20.2300646 L17.9656117,20.2886912 L19.2847113,20.3473179 L19.2847113,18.9695916 L19.3433379,16.6245257 C19.7830378,16.5952124 20.3106776,16.565899 20.7503775,16.565899 C21.3073306,16.565899 21.7177172,16.5952124 21.7470305,16.7124657 C21.7763438,16.8590323 21.7763438,17.1228522 21.7763438,17.5039254 C21.7763438,19.2920382 21.6004639,23.161397 21.5125239,23.2200236 C21.4245839,23.2786503 20.4865576,23.3372769 19.9589177,23.3959036 L19.0208914,23.4838435 L19.0208914,26.0927294 Z M26.407849,13.6345666 C26.4371624,13.6052533 26.7596089,13.6052533 27.2872488,13.6052533 C27.8148886,13.6052533 28.5184084,13.6052533 29.2805548,13.6345666 C29.7788813,13.6638799 30.1599545,13.6638799 30.5117144,13.6931933 C33.0326603,13.8104466 33.7361801,14.660533 33.9413734,16.9469723 C33.9706867,17.3573588 34,17.7970587 34,18.3246985 C34,18.7057717 34,19.1161582 33.9706867,19.5851714 C33.91206,21.1680909 33.7948067,24.7736298 33.7361801,27.6170222 C33.5896135,33.5090004 33.4430468,34.4763401 32.3584538,35.4436798 C31.6842474,36.0299463 31.1272942,36.2058262 29.4271214,36.2058262 C29.0753615,36.2058262 28.664975,36.1765129 28.1959618,36.1765129 L26.0267758,36.1178862 L26.0267758,32.2778408 C26.0267758,27.9101555 26.3199091,13.7811332 26.407849,13.6345666 Z M31.1859209,23.8062901 L31.3324875,17.0055989 L30.2772078,16.9176589 C29.837508,16.9176589 29.5150614,16.8590323 29.3098681,16.8590323 C29.2219282,16.8590323 29.1339882,16.8883456 29.1046749,16.9176589 C29.0167349,16.9762856 29.0167349,17.0642255 29.0167349,17.2401055 C29.0167349,17.4746121 28.9287949,20.2007512 28.8115416,23.0441437 C28.6942883,25.8875361 28.6942883,29.2292551 28.664975,30.489728 L28.6356617,32.746854 C28.6356617,32.746854 29.1926148,32.8054806 29.6323147,32.8054806 L29.749568,32.8054806 C30.0427012,32.8054806 30.2478945,32.7761673 30.5117144,32.6296007 C30.7169077,32.5416607 30.922101,32.2192141 30.922101,32.2192141 C30.9514143,31.8674542 30.9514143,31.3398144 30.9807276,31.0759945 C31.0100409,30.8121746 31.0979809,27.5290823 31.1859209,23.8062901 Z" id="3D" fill="#62686F"></path>
                <rect id="Rectangle" stroke="#00AAF9" stroke-width="8" x="4" y="4" width="42" height="42"></rect>
            </g>
        </g>
    </g>
</svg>