<?xml version="1.0" encoding="UTF-8"?>
<svg width="130px" height="25px" viewBox="0 0 130 25" version="1.1" xmlns="http://www.w3.org/2000/svg" xmlns:xlink="http://www.w3.org/1999/xlink">
    <!-- Generator: Sketch 43.2 (39069) - http://www.bohemiancoding.com/sketch -->
    <title>proshare_logo-white-blue</title>
    <desc>Created with Sketch.</desc>
    <defs></defs>
    <g id="Symbols" stroke="none" stroke-width="1" fill="none" fill-rule="evenodd">
        <g id="proshare_logo-white-blue">
            <path d="M35.44,12.576 C35.184,12.608 33.008,12.832 32.88,12.832 C32.816,12.832 32.816,13.376 32.816,14.112 L32.816,17.44 C32.816,18.336 32.848,19.136 32.848,19.52 L32.848,19.712 C32.816,19.936 32.816,21.152 32.784,22.368 L32.752,24.256 C32.752,24.544 32.688,24.576 32.528,24.576 L30.256,24.576 C30.032,24.576 30,24.512 30,24.384 L30,24.192 L30.032,19.904 C30.096,17.568 30.128,12.864 30.192,8.448 L30.288,0.608 C30.288,0.128 30.448,0.032 30.736,0.032 C30.928,0.032 31.152,0 31.408,0 L33.04,0.064 C35.824,0.16 36.336,-0.128 37.264,1.184 C37.808,1.984 37.84,2.048 37.84,6.208 L37.84,7.712 C37.84,8.576 37.808,9.248 37.776,9.792 C37.648,11.648 37.2,12.064 35.44,12.576 Z M35.056,3.232 C35.024,3.072 34.064,2.944 33.52,2.944 C33.296,2.944 33.136,2.944 33.136,3.008 C33.136,3.04 33.072,4.736 33.008,6.72 L32.912,10.336 L33.84,10.272 L34.896,10.208 L35.024,6.848 C35.056,5.728 35.088,4.704 35.088,4.032 C35.088,3.584 35.088,3.296 35.056,3.232 Z M39.472,11.104 L39.728,0.16 L46,0.16 C47.216,0.288 47.6,0.864 47.6,3.232 L47.6,3.904 C47.568,4.672 47.568,5.632 47.568,6.752 C47.568,9.312 47.504,10.56 47.408,11.2 C47.248,12.064 46.544,12.416 45.616,12.608 C45.392,12.64 45.232,12.704 45.136,12.768 L45.712,15.872 C45.968,17.248 46,17.664 46.448,19.904 C46.576,20.576 46.8,21.792 46.928,22.624 L47.248,24.672 L46,24.768 L44.656,24.832 L44.08,21.856 L42.416,12.48 L42.128,15.936 L41.808,24.896 L39.216,24.896 L39.216,23.552 C39.216,22.816 39.344,17.216 39.472,11.104 Z M44.528,3.84 C44.368,3.712 43.92,3.456 43.472,3.456 L43.344,3.456 L42.48,3.552 L42.48,7.04 C42.48,7.424 42.448,7.776 42.448,8.096 C42.448,9.28 42.48,9.952 42.48,10.24 L42.48,10.464 C42.48,10.56 42.576,10.592 42.736,10.592 C43.024,10.592 43.504,10.464 43.856,10.336 C44.528,10.112 44.592,10.016 44.688,9.088 C44.752,8.512 44.848,7.52 44.848,6.304 L44.848,5.856 C44.848,4.512 44.752,4.032 44.528,3.84 Z M52.336,0.128 C52.688,0.032 53.104,0 53.552,0 C54.544,0 55.664,0.192 56.272,0.512 C56.688,0.736 57.168,1.216 57.392,1.632 C57.648,2.112 57.744,2.56 57.744,5.568 C57.744,7.008 57.712,9.024 57.68,11.904 C57.616,17.152 57.52,21.728 57.456,22.144 C57.136,24 55.472,25.024 52.752,25.024 L52.432,25.024 C51.12,24.992 50.448,24.672 50,24.128 C49.424,23.392 49.104,22.432 49.104,20.96 L49.104,20.768 L49.232,12.992 C49.328,7.872 49.456,3.36 49.488,2.976 C49.648,1.632 50.768,0.512 52.336,0.128 Z M53.552,3.488 C52.56,3.584 52.528,3.584 52.464,10.88 C52.432,14.656 52.336,18.688 52.304,19.872 C52.272,20.544 52.272,21.024 52.272,21.376 C52.272,22.08 52.336,22.176 52.688,22.304 C52.912,22.4 53.136,22.4 53.36,22.4 C53.776,22.4 54.128,22.304 54.384,22.048 C54.672,21.76 54.736,20.448 54.768,13.312 C54.8,8.96 54.8,6.656 54.8,5.472 L54.8,5.152 C54.8,3.968 54.736,3.456 53.84,3.456 C53.744,3.456 53.648,3.488 53.552,3.488 Z M62.512,0.256 C60.944,0.384 60.304,0.704 59.92,1.536 C59.696,1.984 59.504,6.528 59.504,9.376 L59.504,9.504 C59.504,13.216 60.08,12.16 62.8,14.912 L64.528,16.32 L64.528,17.76 C64.528,18.56 64.496,20 64.432,20.608 C64.304,21.632 63.952,21.728 63.376,21.792 C63.216,21.824 62.992,21.824 62.8,21.824 C62.576,21.824 62.384,21.792 62.32,21.76 C62.192,21.696 62.096,20.576 62.064,19.264 L62.192,16.608 L59.376,16.608 L59.312,20.032 L59.312,21.408 C59.312,24 59.568,24.352 60.688,24.832 C61.2,25.056 62.192,25.152 63.216,25.152 C64.304,25.152 65.392,25.024 65.904,24.8 C67.248,24.16 67.376,23.776 67.504,19.328 C67.536,18.304 67.568,17.472 67.568,16.832 C67.568,15.584 67.504,14.944 67.376,14.592 C67.216,14.208 66.256,13.12 65.232,12.16 C63.216,10.24 62.672,10.208 62.512,8.608 L62.512,8.416 C62.512,7.712 62.704,5.952 62.704,5.312 C62.704,4.096 63.184,3.52 63.888,3.52 C63.984,3.52 64.112,3.52 64.208,3.552 C65.008,3.68 65.168,4.224 65.168,5.248 C65.168,5.408 65.136,5.568 65.136,5.728 L65.072,7.84 L68.048,7.84 L68.112,4.448 C68.144,3.904 68.144,3.392 68.144,2.912 C68.144,2.24 68.08,1.664 67.888,1.184 C67.6,0.512 66.768,0.32 65.584,0.256 C65.328,0.224 65.04,0.224 64.72,0.224 L63.696,0.224 C63.312,0.224 62.928,0.224 62.512,0.256 Z M69.584,24.48 L72.624,24.672 L72.656,16.8 L72.656,14.048 L75.024,14.08 C75.024,17.408 75.056,20.832 75.056,22.944 C75.056,24 75.056,24.704 75.024,24.928 L77.968,24.96 L78.064,1.44 L78.064,1.248 C78.064,1.024 78,0.896 76.784,0.832 L75.12,0.768 L75.152,1.696 L75.152,2.592 C75.152,3.584 75.152,5.152 75.12,6.72 C75.088,8.128 75.056,9.856 75.056,11.424 L72.624,11.392 C72.592,8.736 72.528,6.176 72.528,4.032 C72.528,2.784 72.56,1.664 72.592,0.768 L71.28,0.672 C71.024,0.64 70.8,0.64 70.608,0.64 C70,0.64 69.68,0.736 69.648,0.864 C69.616,0.928 69.616,1.344 69.616,1.952 C69.616,2.72 69.616,3.808 69.648,4.992 L69.648,6.048 C69.648,7.904 69.616,11.168 69.616,14.304 C69.616,15.552 69.616,16.768 69.648,17.888 L69.584,24.48 Z M81.968,0.544 C81.968,0.384 82.768,0.32 84.24,0.32 L86.352,0.32 L86.64,2.496 C86.864,4.352 87.44,8.64 88.816,21.344 C88.944,22.432 89.072,23.616 89.136,24.064 L89.232,24.864 L87.632,24.928 C86.736,24.96 86.288,25.024 86.288,25.024 C86.288,25.024 86.16,23.648 85.968,21.984 C85.776,20.32 85.616,18.016 85.52,17.92 C85.456,17.856 85.264,17.856 84.976,17.856 C84.72,17.856 84.4,17.888 84.08,17.888 L82.96,17.888 L82.576,21.088 C82.416,22.304 82.32,23.616 82.288,24.032 L82.224,24.8 L79.28,24.928 L79.408,24.224 C79.44,24.064 81.488,5.44 81.968,0.544 Z M84.912,10.496 L84.272,4.288 L83.824,8 L83.248,14.08 L83.248,14.848 L85.424,14.72 L84.912,10.496 Z M90.608,8.512 L90.672,1.792 L90.704,0.864 C90.704,0.256 90.768,0.224 91.216,0.224 L91.504,0.224 L93.584,0.256 C93.968,0.224 94.352,0.224 94.704,0.224 C95.696,0.224 96.464,0.288 96.656,0.32 C98.096,0.544 98.224,1.472 98.224,4.16 C98.224,4.768 98.256,5.472 98.256,6.272 L98.256,8.224 C98.256,9.44 98.224,10.304 98.096,10.944 C97.904,11.808 97.488,12.192 96.592,12.416 L95.856,12.64 L96.848,16.768 C97.36,18.912 97.776,21.312 97.936,22.144 C98.096,22.976 98.288,23.904 98.352,24.16 C98.384,24.256 98.384,24.32 98.384,24.384 C98.384,24.64 98.128,24.64 97.072,24.64 L95.728,24.64 L95.44,23.296 C95.056,21.376 93.936,15.744 93.808,15.168 C93.744,14.912 93.424,12.896 93.296,12.896 C93.232,12.896 93.232,13.44 93.232,14.176 L93.232,17.504 C93.232,18.4 93.264,19.2 93.264,19.584 L93.264,19.776 C93.232,20 93.2,21.216 93.168,22.432 L93.136,24.64 L90.448,24.64 L90.48,19.968 C90.544,17.632 90.576,12.928 90.608,8.512 Z M95.472,3.296 C95.44,3.136 94.48,3.008 93.936,3.008 C93.712,3.008 93.552,3.008 93.552,3.072 C93.552,3.104 93.488,4.8 93.424,6.784 L93.328,10.4 L94.256,10.336 L95.312,10.272 L95.44,6.912 C95.472,5.792 95.472,4.768 95.472,4.096 C95.472,3.648 95.504,3.36 95.472,3.296 Z M99.984,4.224 C99.984,5.312 100.016,6.56 100.016,7.712 C100.016,8.8 100.016,9.792 99.984,10.432 C99.952,11.744 99.888,15.488 99.856,18.752 L99.824,24.704 L105.936,24.704 L105.84,23.2 L105.84,22.88 C105.84,22.368 105.904,21.856 105.904,21.536 C105.904,21.376 105.872,21.312 105.84,21.28 C105.808,21.248 105.68,21.216 105.488,21.216 C105.2,21.216 104.784,21.248 104.496,21.248 L102.864,21.248 L102.896,17.696 C102.928,15.744 102.96,14.08 103.024,14.016 C103.056,13.984 104.08,13.952 104.464,13.952 C104.624,13.952 104.752,13.984 104.944,13.984 L106.032,14.016 L106.032,10.528 L104.816,10.528 L103.024,10.56 L102.992,8.544 L102.992,3.456 C103.984,3.36 105.072,3.328 106.032,3.328 C106.128,3.328 106.192,3.328 106.224,3.296 C106.256,3.264 106.256,3.168 106.256,3.04 C106.256,2.784 106.224,2.368 106.224,1.92 L106.224,1.728 L106.256,0.384 L100.048,0.384 L99.984,4.224 Z" id="PROSHARE" fill="#FFFFFF"></path>
            <g id="Group-2">
                <path d="M9.51044568,13.0463647 C9.87686223,13.0463647 10.2286221,13.075678 10.3458754,13.3394979 C10.4191587,13.4860646 10.4338154,13.7791978 10.4338154,14.1016444 C10.4338154,14.4973742 10.4045021,14.9370741 10.3898454,15.3034907 C10.3898454,15.7138772 10.3898454,16.0509804 10.4045021,16.3441137 C10.3165621,16.5639636 10.1699955,16.6079336 9.97945886,16.6372469 C9.90617555,16.6519036 9.80357892,16.6519036 9.71563895,16.6519036 C9.61304231,16.6519036 9.52510234,16.6372469 9.49578902,16.6225902 C9.43716237,16.5932769 9.39319238,16.0802937 9.37853572,15.4793706 L9.43716237,14.2628676 L8.1473761,14.2628676 L8.11806278,15.8311305 L8.11806278,16.461367 C8.11806278,17.6485566 8.23531608,17.8097799 8.74829925,18.0296298 C8.98280584,18.1322264 9.43716237,18.1761964 9.90617555,18.1761964 C10.4045021,18.1761964 10.9028286,18.1175698 11.1373352,18.0149731 C11.6503183,17.7658099 11.8408549,17.7511532 11.8994816,16.5199936 L11.8994816,16.4027403 C11.8994816,16.1682337 11.9287949,15.9044138 11.9287949,15.6259372 L11.9287949,14.1016444 C11.9287949,13.3688113 11.9141383,13.1782747 11.7382583,13.0023947 L11.4011551,12.6506348 L11.796885,12.4014716 C12.1779582,12.1523083 12.1486449,12.2695616 12.2365848,9.63136243 C12.2512415,9.13303592 12.2658981,8.7519627 12.2658981,8.47348613 C12.2658981,8.1363829 12.2365848,7.85790632 12.1633015,7.62339972 C12.0607049,7.30095316 11.8848249,7.0517899 11.6063484,6.91987994 C11.3864984,6.81728331 10.6096953,6.744 9.90617555,6.744 C9.37853572,6.744 8.88020921,6.78796999 8.71898593,6.8612533 C8.36722604,7.02247658 8.2646294,7.19835652 8.2646294,8.22432287 C8.2646294,8.42951614 8.2646294,8.69333606 8.27928606,8.9864693 L8.30859939,10.1150323 L8.98280584,10.1443456 L9.64235564,10.1736589 L9.64235564,9.48479581 L9.67166896,8.31226284 C9.89151889,8.29760618 10.1553388,8.28294952 10.3751887,8.28294952 C10.6536653,8.28294952 10.8588586,8.29760618 10.8735153,8.35623283 C10.8881719,8.42951614 10.8881719,8.5614261 10.8881719,8.7519627 C10.8881719,9.64601909 10.8002319,11.5806985 10.756262,11.6100118 C10.712292,11.6393251 10.2432788,11.6686385 9.97945886,11.6979518 L9.51044568,11.7419218 L9.51044568,13.0463647 Z M13.2039245,6.81728331 C13.2185812,6.80262665 13.3798045,6.80262665 13.6436244,6.80262665 C13.9074443,6.80262665 14.2592042,6.80262665 14.6402774,6.81728331 C14.8894407,6.83193997 15.0799773,6.83193997 15.2558572,6.84659663 C16.5163302,6.90522328 16.86809,7.33026648 16.9706867,8.47348613 C16.9853433,8.67867939 17,8.89852933 17,9.16234924 C17,9.35288585 17,9.55807912 16.9853433,9.79258571 C16.95603,10.5840455 16.8974034,12.3868149 16.86809,13.8085111 C16.7948067,16.7545002 16.7215234,17.23817 16.1792269,17.7218399 C15.8421237,18.0149731 15.5636471,18.1029131 14.7135607,18.1029131 C14.5376808,18.1029131 14.3324875,18.0882564 14.0979809,18.0882564 L13.0133879,18.0589431 L13.0133879,16.1389204 C13.0133879,13.9550777 13.1599545,6.89056662 13.2039245,6.81728331 Z M15.5929604,11.9031451 L15.6662438,8.50279945 L15.1386039,8.45882946 C14.918754,8.45882946 14.7575307,8.42951614 14.6549341,8.42951614 C14.6109641,8.42951614 14.5669941,8.4441728 14.5523374,8.45882946 C14.5083674,8.48814279 14.5083674,8.53211277 14.5083674,8.62005275 C14.5083674,8.73730604 14.4643975,10.1003756 14.4057708,11.5220718 C14.3471442,12.9437681 14.3471442,14.6146275 14.3324875,15.244864 L14.3178308,16.373427 C14.3178308,16.373427 14.5963074,16.4027403 14.8161574,16.4027403 L14.874784,16.4027403 C15.0213506,16.4027403 15.1239473,16.3880836 15.2558572,16.3148003 C15.3584538,16.2708304 15.4610505,16.1096071 15.4610505,16.1096071 C15.4757071,15.9337271 15.4757071,15.6699072 15.4903638,15.5379972 C15.5050205,15.4060873 15.5489905,13.7645411 15.5929604,11.9031451 Z" id="3D" fill="#FFFFFF"></path>
                <rect id="Rectangle" stroke="#00AAF9" stroke-width="4" x="2" y="2" width="21" height="21"></rect>
            </g>
        </g>
    </g>
</svg>