<?xml version="1.0" encoding="UTF-8"?>
<svg width="145px" height="47px" viewBox="0 0 145 47" version="1.1" xmlns="http://www.w3.org/2000/svg" xmlns:xlink="http://www.w3.org/1999/xlink">
    <!-- Generator: Sketch 43.2 (39069) - http://www.bohemiancoding.com/sketch -->
    <title>proshare_logo</title>
    <desc>Created with Sketch.</desc>
    <defs></defs>
    <g id="Symbols" stroke="none" stroke-width="1" fill="none" fill-rule="evenodd">
        <g id="proshare_logo">
            <text id="PROSHARE" font-family="Sheldon" font-size="32" font-weight="normal" line-spacing="18" fill="#62686F">
                <tspan x="44" y="49">PROSHARE</tspan>
            </text>
            <g id="Group-2" transform="translate(15.000000, 11.000000)">
                <path d="M9.51044568,13.0463647 C9.87686223,13.0463647 10.2286221,13.075678 10.3458754,13.3394979 C10.4191587,13.4860646 10.4338154,13.7791978 10.4338154,14.1016444 C10.4338154,14.4973742 10.4045021,14.9370741 10.3898454,15.3034907 C10.3898454,15.7138772 10.3898454,16.0509804 10.4045021,16.3441137 C10.3165621,16.5639636 10.1699955,16.6079336 9.97945886,16.6372469 C9.90617555,16.6519036 9.80357892,16.6519036 9.71563895,16.6519036 C9.61304231,16.6519036 9.52510234,16.6372469 9.49578902,16.6225902 C9.43716237,16.5932769 9.39319238,16.0802937 9.37853572,15.4793706 L9.43716237,14.2628676 L8.1473761,14.2628676 L8.11806278,15.8311305 L8.11806278,16.461367 C8.11806278,17.6485566 8.23531608,17.8097799 8.74829925,18.0296298 C8.98280584,18.1322264 9.43716237,18.1761964 9.90617555,18.1761964 C10.4045021,18.1761964 10.9028286,18.1175698 11.1373352,18.0149731 C11.6503183,17.7658099 11.8408549,17.7511532 11.8994816,16.5199936 L11.8994816,16.4027403 C11.8994816,16.1682337 11.9287949,15.9044138 11.9287949,15.6259372 L11.9287949,14.1016444 C11.9287949,13.3688113 11.9141383,13.1782747 11.7382583,13.0023947 L11.4011551,12.6506348 L11.796885,12.4014716 C12.1779582,12.1523083 12.1486449,12.2695616 12.2365848,9.63136243 C12.2512415,9.13303592 12.2658981,8.7519627 12.2658981,8.47348613 C12.2658981,8.1363829 12.2365848,7.85790632 12.1633015,7.62339972 C12.0607049,7.30095316 11.8848249,7.0517899 11.6063484,6.91987994 C11.3864984,6.81728331 10.6096953,6.744 9.90617555,6.744 C9.37853572,6.744 8.88020921,6.78796999 8.71898593,6.8612533 C8.36722604,7.02247658 8.2646294,7.19835652 8.2646294,8.22432287 C8.2646294,8.42951614 8.2646294,8.69333606 8.27928606,8.9864693 L8.30859939,10.1150323 L8.98280584,10.1443456 L9.64235564,10.1736589 L9.64235564,9.48479581 L9.67166896,8.31226284 C9.89151889,8.29760618 10.1553388,8.28294952 10.3751887,8.28294952 C10.6536653,8.28294952 10.8588586,8.29760618 10.8735153,8.35623283 C10.8881719,8.42951614 10.8881719,8.5614261 10.8881719,8.7519627 C10.8881719,9.64601909 10.8002319,11.5806985 10.756262,11.6100118 C10.712292,11.6393251 10.2432788,11.6686385 9.97945886,11.6979518 L9.51044568,11.7419218 L9.51044568,13.0463647 Z M13.2039245,6.81728331 C13.2185812,6.80262665 13.3798045,6.80262665 13.6436244,6.80262665 C13.9074443,6.80262665 14.2592042,6.80262665 14.6402774,6.81728331 C14.8894407,6.83193997 15.0799773,6.83193997 15.2558572,6.84659663 C16.5163302,6.90522328 16.86809,7.33026648 16.9706867,8.47348613 C16.9853433,8.67867939 17,8.89852933 17,9.16234924 C17,9.35288585 17,9.55807912 16.9853433,9.79258571 C16.95603,10.5840455 16.8974034,12.3868149 16.86809,13.8085111 C16.7948067,16.7545002 16.7215234,17.23817 16.1792269,17.7218399 C15.8421237,18.0149731 15.5636471,18.1029131 14.7135607,18.1029131 C14.5376808,18.1029131 14.3324875,18.0882564 14.0979809,18.0882564 L13.0133879,18.0589431 L13.0133879,16.1389204 C13.0133879,13.9550777 13.1599545,6.89056662 13.2039245,6.81728331 Z M15.5929604,11.9031451 L15.6662438,8.50279945 L15.1386039,8.45882946 C14.918754,8.45882946 14.7575307,8.42951614 14.6549341,8.42951614 C14.6109641,8.42951614 14.5669941,8.4441728 14.5523374,8.45882946 C14.5083674,8.48814279 14.5083674,8.53211277 14.5083674,8.62005275 C14.5083674,8.73730604 14.4643975,10.1003756 14.4057708,11.5220718 C14.3471442,12.9437681 14.3471442,14.6146275 14.3324875,15.244864 L14.3178308,16.373427 C14.3178308,16.373427 14.5963074,16.4027403 14.8161574,16.4027403 L14.874784,16.4027403 C15.0213506,16.4027403 15.1239473,16.3880836 15.2558572,16.3148003 C15.3584538,16.2708304 15.4610505,16.1096071 15.4610505,16.1096071 C15.4757071,15.9337271 15.4757071,15.6699072 15.4903638,15.5379972 C15.5050205,15.4060873 15.5489905,13.7645411 15.5929604,11.9031451 Z" id="3D" fill="#62686F"></path>
                <rect id="Rectangle" stroke="#00AAF9" stroke-width="4" x="2" y="2" width="21" height="21"></rect>
            </g>
        </g>
    </g>
</svg>