<?xml version="1.0" encoding="UTF-8"?>
<svg width="112px" height="112px" viewBox="0 0 112 112" version="1.1" xmlns="http://www.w3.org/2000/svg" xmlns:xlink="http://www.w3.org/1999/xlink">
    <!-- Generator: Sketch 43.2 (39069) - http://www.bohemiancoding.com/sketch -->
    <title>resolution-white</title>
    <desc>Created with Sketch.</desc>
    <defs></defs>
    <g id="Page-1" stroke="none" stroke-width="1" fill="none" fill-rule="evenodd">
        <g id="resolution-white">
            <g id="Group-2" transform="translate(4.000000, 7.000000)">
                <rect id="Rectangle-29" stroke="#FFFFFF" stroke-width="2" transform="translate(52.500000, 52.500000) rotate(45.000000) translate(-52.500000, -52.500000) " x="17" y="17" width="71" height="71"></rect>
                <rect id="Rectangle-28-Copy-2" fill="#FFFFFF" transform="translate(52.500000, 10.000000) scale(-1, 1) translate(-52.500000, -10.000000) " x="52" y="2" width="1" height="16"></rect>
                <rect id="Rectangle-28-Copy-3" fill="#FFFFFF" transform="translate(52.500000, 95.000000) scale(-1, 1) translate(-52.500000, -95.000000) " x="52" y="87" width="1" height="16"></rect>
                <rect id="Rectangle-28-Copy-4" fill="#FFFFFF" transform="translate(95.000000, 52.500000) scale(-1, 1) rotate(90.000000) translate(-95.000000, -52.500000) " x="94.5" y="44.5" width="1" height="16"></rect>
                <rect id="Rectangle-28-Copy-5" fill="#FFFFFF" transform="translate(10.000000, 52.500000) scale(-1, 1) rotate(90.000000) translate(-10.000000, -52.500000) " x="9.5" y="44.5" width="1" height="16"></rect>
                <rect id="Rectangle-28-Copy-6" fill="#FFFFFF" transform="translate(22.000000, 52.500000) scale(-1, 1) rotate(90.000000) translate(-22.000000, -52.500000) " x="21.5" y="50.5" width="1" height="4"></rect>
                <rect id="Rectangle-28-Copy-7" fill="#FFFFFF" transform="translate(47.000000, 52.500000) scale(-1, 1) rotate(90.000000) translate(-47.000000, -52.500000) " x="46.5" y="50.5" width="1" height="4"></rect>
                <rect id="Rectangle-28-Copy-6" fill="#FFFFFF" transform="translate(28.000000, 52.500000) scale(-1, 1) rotate(90.000000) translate(-28.000000, -52.500000) " x="27.5" y="50.5" width="1" height="4"></rect>
                <rect id="Rectangle-28-Copy-6" fill="#FFFFFF" transform="translate(34.000000, 52.500000) scale(-1, 1) rotate(90.000000) translate(-34.000000, -52.500000) " x="33.5" y="50.5" width="1" height="4"></rect>
                <rect id="Rectangle-28-Copy-9" fill="#FFFFFF" transform="translate(59.000000, 52.500000) scale(-1, 1) rotate(90.000000) translate(-59.000000, -52.500000) " x="58.5" y="50.5" width="1" height="4"></rect>
                <rect id="Rectangle-28-Copy-6" fill="#FFFFFF" transform="translate(40.000000, 52.500000) scale(-1, 1) rotate(90.000000) translate(-40.000000, -52.500000) " x="39.5" y="50.5" width="1" height="4"></rect>
                <rect id="Rectangle-28-Copy-10" fill="#FFFFFF" transform="translate(65.000000, 52.500000) scale(-1, 1) rotate(90.000000) translate(-65.000000, -52.500000) " x="64.5" y="50.5" width="1" height="4"></rect>
                <rect id="Rectangle-28-Copy-8" fill="#FFFFFF" transform="translate(71.000000, 52.500000) scale(-1, 1) rotate(90.000000) translate(-71.000000, -52.500000) " x="70.5" y="50.5" width="1" height="4"></rect>
                <rect id="Rectangle-28-Copy-9" fill="#FFFFFF" transform="translate(77.000000, 52.500000) scale(-1, 1) rotate(90.000000) translate(-77.000000, -52.500000) " x="76.5" y="50.5" width="1" height="4"></rect>
                <rect id="Rectangle-28-Copy-10" fill="#FFFFFF" transform="translate(83.000000, 52.500000) scale(-1, 1) rotate(90.000000) translate(-83.000000, -52.500000) " x="82.5" y="50.5" width="1" height="4"></rect>
                <rect id="Rectangle-28-Copy-6" fill="#FFFFFF" transform="translate(52.500000, 22.000000) scale(-1, 1) rotate(180.000000) translate(-52.500000, -22.000000) " x="52" y="20" width="1" height="4"></rect>
                <rect id="Rectangle-28-Copy-7" fill="#FFFFFF" transform="translate(52.500000, 47.000000) scale(-1, 1) rotate(180.000000) translate(-52.500000, -47.000000) " x="52" y="45" width="1" height="4"></rect>
                <rect id="Rectangle-28-Copy-6" fill="#FFFFFF" transform="translate(52.500000, 28.000000) scale(-1, 1) rotate(180.000000) translate(-52.500000, -28.000000) " x="52" y="26" width="1" height="4"></rect>
                <rect id="Rectangle-28-Copy-8" fill="#FFFFFF" transform="translate(52.500000, 53.000000) scale(-1, 1) rotate(180.000000) translate(-52.500000, -53.000000) " x="52" y="51" width="1" height="4"></rect>
                <rect id="Rectangle-28-Copy-6" fill="#FFFFFF" transform="translate(52.500000, 34.000000) scale(-1, 1) rotate(180.000000) translate(-52.500000, -34.000000) " x="52" y="32" width="1" height="4"></rect>
                <rect id="Rectangle-28-Copy-9" fill="#FFFFFF" transform="translate(52.500000, 59.000000) scale(-1, 1) rotate(180.000000) translate(-52.500000, -59.000000) " x="52" y="57" width="1" height="4"></rect>
                <rect id="Rectangle-28-Copy-6" fill="#FFFFFF" transform="translate(52.500000, 40.000000) scale(-1, 1) rotate(180.000000) translate(-52.500000, -40.000000) " x="52" y="38" width="1" height="4"></rect>
                <rect id="Rectangle-28-Copy-10" fill="#FFFFFF" transform="translate(52.500000, 65.000000) scale(-1, 1) rotate(180.000000) translate(-52.500000, -65.000000) " x="52" y="63" width="1" height="4"></rect>
                <rect id="Rectangle-28-Copy-8" fill="#FFFFFF" transform="translate(52.500000, 71.000000) scale(-1, 1) rotate(180.000000) translate(-52.500000, -71.000000) " x="52" y="69" width="1" height="4"></rect>
                <rect id="Rectangle-28-Copy-9" fill="#FFFFFF" transform="translate(52.500000, 77.000000) scale(-1, 1) rotate(180.000000) translate(-52.500000, -77.000000) " x="52" y="75" width="1" height="4"></rect>
                <rect id="Rectangle-28-Copy-10" fill="#FFFFFF" transform="translate(52.500000, 83.000000) scale(-1, 1) rotate(180.000000) translate(-52.500000, -83.000000) " x="52" y="81" width="1" height="4"></rect>
            </g>
        </g>
    </g>
</svg>