<?xml version="1.0" encoding="UTF-8"?>
<svg width="123px" height="117px" viewBox="0 0 123 117" version="1.1" xmlns="http://www.w3.org/2000/svg" xmlns:xlink="http://www.w3.org/1999/xlink">
    <!-- Generator: Sketch 43.2 (39069) - http://www.bohemiancoding.com/sketch -->
    <title>spec-shipping-box</title>
    <desc>Created with Sketch.</desc>
    <defs></defs>
    <g id="Page-1" stroke="none" stroke-width="1" fill="none" fill-rule="evenodd">
        <g id="spec-shipping-box" stroke="#62686F">
            <rect id="Rectangle-42" x="0.5" y="31.5" width="122" height="85"></rect>
            <path d="M12.3331549,0.5 L110.666845,0.5 L113.308354,8.5 L9.69164552,8.5 L12.3331549,0.5 Z" id="Rectangle-42"></path>
            <path d="M0.693712943,8.5 L122.306287,8.5 L114.63962,31.5 L8.36037961,31.5 L0.693712943,8.5 Z" id="Rectangle-42" transform="translate(61.500000, 20.000000) scale(1, -1) translate(-61.500000, -20.000000) "></path>
            <rect id="Rectangle-43" x="81.5" y="78.5" width="26" height="26" rx="4"></rect>
            <path d="M98.5,99.5 L90.5,99.5 L90.5,94 L90.5,93.5 L90,93.5 L86.0335512,93.5 L94.5,82.8055383 L102.966449,93.5 L99,93.5 L98.5,93.5 L98.5,94 L98.5,99.5 Z" id="Combined-Shape"></path>
        </g>
    </g>
</svg>