<?xml version="1.0" encoding="UTF-8"?>
<svg width="96px" height="149px" viewBox="0 0 96 149" version="1.1" xmlns="http://www.w3.org/2000/svg" xmlns:xlink="http://www.w3.org/1999/xlink">
    <!-- Generator: Sketch 43.2 (39069) - http://www.bohemiancoding.com/sketch -->
    <title>spec-printer-front</title>
    <desc>Created with Sketch.</desc>
    <defs></defs>
    <g id="Page-1" stroke="none" stroke-width="1" fill="none" fill-rule="evenodd">
        <g id="spec-printer-front" stroke="#62686F">
            <path d="M18.8409722,0.5 C20.0708333,0.5 20.41,0.5 24.48,0.5 C25.7512496,0.5 27.0983544,7.23552365 27.9818267,17.5427006 C28.3093493,21.3637982 28.5667816,25.4593115 28.7618159,29.5550326 C28.8300856,30.9886964 28.8856746,32.3199056 28.9295558,33.5144487 C28.9429776,33.8798214 28.9544422,34.2092904 28.9640307,34.5 L18.98,34.5 L18.98,0.5 L18.8409722,0.5 Z" id="Rectangle-38"></path>
            <rect id="Rectangle-38" x="0.5" y="34.5" width="95" height="103"></rect>
            <path d="M86.5,118.5 L62.0001757,118.5 C58.5349492,118.5 54.028861,120.663533 51.8672194,123.365585 L47.7596876,128.5 L14.991014,128.5 C11.9587101,128.5 9.5,126.039888 9.5,123.006042 L9.5,49.9939576 C9.5,46.9606298 11.960178,44.5 14.991014,44.5 L81.008986,44.5 C84.0412899,44.5 86.5,46.9601117 86.5,49.9939576 L86.5,118.5 Z" id="Combined-Shape"></path>
            <rect id="Rectangle-38" x="2.5" y="137.5" width="91" height="11"></rect>
            <rect id="Rectangle-38" x="9.5" y="23.5" width="14" height="11"></rect>
            <path d="M13.4031441,0.5 C13.9077816,0.5 14.032763,0.5 14.72,0.5 C15.2657009,0.5 15.2657009,0.5 15.8223688,0.5 C18.7278487,0.5 18.8609589,0.5 23.3260978,0.5 C22.6936853,2.78339739 22.2404736,6.39624766 21.9331074,11.0067405 C21.7435586,13.8499723 21.6217753,16.8945545 21.5541234,19.9388916 C21.5304495,21.004219 21.5152296,21.9935096 21.5067727,22.8814883 C21.5046321,23.1062511 21.5030438,23.3128197 21.5019281,23.5 L11.5025439,23.5 C11.5044262,23.259122 11.5072947,22.9889241 11.5113422,22.6914322 C11.5255382,21.6480305 11.5510962,20.4851377 11.5908561,19.2327018 C11.7044316,15.6550749 11.9088475,12.0777954 12.2266107,8.7412821 C12.5281367,5.57525956 12.9174325,2.79267549 13.4031441,0.5 L13.4031441,0.5 Z" id="Rectangle-38"></path>
            <rect id="Rectangle-40" x="58.5" y="123.5" width="28" height="6" rx="2"></rect>
        </g>
    </g>
</svg>