<?xml version="1.0" encoding="UTF-8"?>
<svg width="116px" height="143px" viewBox="0 0 116 143" version="1.1" xmlns="http://www.w3.org/2000/svg" xmlns:xlink="http://www.w3.org/1999/xlink">
    <!-- Generator: Sketch 43.2 (39069) - http://www.bohemiancoding.com/sketch -->
    <title>spec-printer-spool</title>
    <desc>Created with Sketch.</desc>
    <defs></defs>
    <g id="Page-1" stroke="none" stroke-width="1" fill="none" fill-rule="evenodd">
        <g id="spec-printer-spool" transform="translate(0.000000, -1.000000)" stroke="#62686F">
            <path d="M41.1239648,1.46790665 C40.7476426,1.47472429 40.3665924,1.48553061 39.9807834,1.50036941 C28.2787023,1.95044946 20.5573715,14.2817146 20.5270322,29.4683272 C20.5219225,32.0259948 20.5175619,34.8501018 20.5138971,37.8964496 C20.5078171,42.9503689 20.5039085,48.3652507 20.5017371,53.780128 C20.5009771,55.6753315 20.5004886,57.4351644 20.5002171,59.0145044 C20.5000814,59.8944258 20.5000814,59.8944258 20.5000271,60.481046 C20.5000267,60.4874594 20.5000263,60.4937768 20.5000259,60.5 C19.84421,60.5 19.1065336,60.5 15.3934102,60.5 C13.80729,53.7332296 13.1203011,39.5267099 14.8755276,28.4532767 C17.501379,11.8872148 24.8235386,1.93303324 37.8813745,1.49972494 C38.9907744,1.46291086 40.0714867,1.45255664 41.1239612,1.4679066 L41.1239648,1.46790665 Z M53.258989,3.05588574 C58.7153834,4.55402533 62.996514,7.05484988 66.2368301,10.3324584 C68.1455177,12.2631129 69.5454898,14.3298469 70.5155035,16.3941821 C70.8538245,17.1141799 71.1140686,17.7813239 71.3060213,18.3780383 C71.3195863,18.4202072 71.3324578,18.4608711 71.3446525,18.5 L65.5025048,18.5 C65.4982576,18.3201429 65.4889909,18.118333 65.4733094,17.8963672 C65.4289546,17.2685431 65.3400361,16.5915125 65.1962533,15.8784131 C64.8045316,13.9356458 64.0690375,12.0096801 62.906246,10.2087053 C60.8270167,6.98831766 57.660239,4.53395976 53.258989,3.05588574 Z M53.258989,3.05588574 C49.9379122,1.94056681 45.9139457,1.38112896 41.1239648,1.46790665 C45.6876906,1.53446716 49.7204756,2.08433078 53.258989,3.05588574 Z" id="Rectangle-41"></path>
            <rect id="Rectangle-38-Copy-2" x="20.5" y="29.5" width="95" height="103"></rect>
            <rect id="Rectangle-38-Copy-2" x="3.5" y="60.5" width="17" height="42"></rect>
            <rect id="Rectangle-38-Copy-2" transform="translate(2.000000, 81.500000) scale(-1, 1) translate(-2.000000, -81.500000) " x="0.5" y="56.5" width="3" height="50"></rect>
            <rect id="Rectangle-38-Copy-2" x="39.5" y="39.5" width="67" height="85" rx="4"></rect>
            <rect id="Rectangle-38-Copy-3" x="22.5" y="132.5" width="91" height="11"></rect>
            <rect id="Rectangle-38-Copy-4" x="61.5" y="18.5" width="14" height="11"></rect>
        </g>
    </g>
</svg>